<?xml version="1.0" encoding="UTF-8" standalone="no"?><!DOCTYPE svg PUBLIC "-//W3C//DTD SVG 1.1//EN" "http://www.w3.org/Graphics/SVG/1.1/DTD/svg11.dtd"><svg width="100%" height="100%" viewBox="0 0 1328 527" version="1.1" xmlns="http://www.w3.org/2000/svg" xmlns:xlink="http://www.w3.org/1999/xlink" xml:space="preserve" xmlns:serif="http://www.serif.com/" style="fill-rule:evenodd;clip-rule:evenodd;stroke-linecap:round;stroke-linejoin:round;stroke-miterlimit:1.5;"><rect id="Plan-de-travail3" serif:id="Plan de travail3" x="0" y="0" width="1327.25" height="526.092" style="fill:none;"/><g transform="matrix(1.59452,0,0,1.59452,-4845.49,-253.384)"><text x="3336.28px" y="412.251px" style="font-family:'Cheese Bread';font-size:50px;">Festival d<tspan x="3578.62px 3610.38px " y="412.251px 412.251px ">u </tspan>fromage</text><text x="3336.28px" y="463.651px" style="font-family:'Cheese Bread';font-size:50px;">d<tspan x="3366.53px 3392.12px " y="463.651px 463.651px ">e </tspan>Moisie</text></g><g id="Logo"><g><path d="M211.592,299.42c-0.72,0.265 -1.415,0.618 -2.069,1.056c-1.171,0.488 -2.309,1.08 -2.951,1.722c-1.169,1.168 -2.345,2.901 -2.856,5.317c-0.475,2.248 -0.025,6.429 1.389,9.044c2.035,3.763 5.386,5.422 8.299,5.756c2.628,0.302 5.75,-0.107 8.746,-3.103c0.955,-0.956 2.374,-4.056 3.102,-5.741c2.277,-3.335 2.385,-7.87 -0.067,-11.372c-3.088,-4.412 -9.104,-5.568 -13.593,-2.679Z" style="fill:#ff5b00;"/><path d="M277.267,346.918l0.323,0.002l0.515,-0.013c5.071,-0.257 9.145,-4.291 9.463,-9.346c0.808,-1.859 1.238,-3.922 1.971,-5.744c0.773,-0.802 1.471,-1.58 1.652,-1.941c0.267,-0.536 0.946,-1.737 0.946,-1.737c0,0 -0.252,0.297 -0.369,0.415c1.237,-1.237 2.864,-5.385 3.467,-7.005c0.737,-1.456 1.685,-3.133 2.327,-4.416c0.151,-0.302 0.311,-0.692 0.467,-1.114c0.669,-0.149 1.336,-0.32 1.837,-0.487c5.837,-1.946 12.68,-1.405 18.953,-2.663c1.652,0.139 3.886,0.196 5.306,-0.277c-0.079,0.026 -0.248,0.073 -0.248,0.073c0,-0 1.723,-0.298 3.546,-0.726c0.622,0.104 1.25,0.186 1.626,0.186c0.55,-0 2.447,-0.117 3.848,-0.209c1.408,0.759 3.018,1.189 4.728,1.189c5.519,-0 10,-4.481 10,-10c0,-4.411 -2.04,-8.028 -6.698,-10.081c-1.475,-0.65 -3.606,-1.148 -6.02,-1.211c-2.183,-0.056 -4.881,0.312 -5.858,0.312c0.512,-0 1.795,0.195 1.795,0.195c0,0 -5.721,-0.532 -8.344,0.456c0.296,-0.118 0.615,-0.228 0.615,-0.228c-0,-0 -1.581,0.235 -3.11,0.539c-1.45,-0.156 -3.359,-0.252 -4.653,0.071c-7.129,1.783 -15.077,1.156 -21.811,3.4c-2.919,0.974 -5.857,1.237 -8.357,2.944c-2.581,1.762 -4.96,7.295 -5.576,8.812l-0.154,0.298c-3.842,-0.393 -8.241,0.532 -9.957,6.028c-0.133,0.423 -0.779,2.571 -0.873,2.947c-0.319,1.277 -0.353,2.869 -0.958,4.079c-0.694,1.389 -1.214,3.29 -1.262,5.343c-0.049,2.077 0.425,4.393 0.425,4.393c0.166,0.786 0.422,1.532 0.755,2.23l0.006,0.593l0,1.199l-0.009,0.167c-0.003,0.133 -0.006,0.267 -0.009,0.401l0.018,0.747l0,0.181l0.012,0.012c0.074,1.283 0.289,2.445 0.384,2.773c1.909,6.558 7.831,7.164 9.281,7.213Zm10.107,-8.893c-0.531,1.608 -1.395,3.755 -2.506,5.01c1.165,-1.228 2.099,-2.843 2.479,-4.833l0.027,-0.177Zm0.204,-0.605c0.242,-0.718 0.417,-1.49 0.417,-1.49c0,-0 -0.144,0.596 -0.417,1.465l-0,0.025Zm40.229,-32.414l0.007,0.035l-0.052,-0.293l0.045,0.258Zm-0.136,-0.929c0.019,0.157 0.038,0.313 0.056,0.47l0.011,0.062l-0.061,-0.482l-0.039,-0.505l0.033,0.455Zm-0.033,-0.458l-0.013,-0.514c0,0.173 0.004,0.345 0.013,0.514Z" style="fill:#ff5b00;"/><path d="M74.768,308.644c1.287,0.305 2.971,0.554 4.231,0.717l0.826,0.543c0.89,0.558 2.083,0.942 2.791,1.65c2.108,2.107 7.073,4.624 10.841,6.485l0.687,1.445c0.875,1.751 2.305,3.683 3.547,5.126c0.753,1.913 2.395,5.85 3.59,7.045c0.808,0.807 1.109,1.869 1.677,2.833c1.111,1.887 2.417,3.737 4.241,5.473c1.141,1.087 2.635,2.505 3.153,4.057c1.923,5.771 1.338,12.628 3.35,18.666c1.745,5.235 7.413,8.069 12.649,6.324c5.236,-1.745 8.07,-7.413 6.325,-12.649c-2.013,-6.037 -1.427,-12.894 -3.35,-18.665c-1.49,-4.468 -5.049,-9.087 -8.334,-12.215c-0.867,-0.826 -1.199,-1.845 -1.704,-2.727c-0.785,-1.37 -1.631,-2.679 -2.653,-3.906c-0.749,-1.904 -2.4,-5.872 -3.604,-7.076c-0.273,-0.273 -0.765,-0.762 -0.999,-1.23c-0.702,-1.405 -2.059,-4.401 -3.368,-6.013c-1.259,-1.551 -2.676,-2.596 -3.975,-3.245l-8.168,-4.093c-1.807,-1.672 -5.826,-4.095 -6.284,-4.369c-1.028,-0.958 -2.306,-1.783 -3.864,-2.357c-1.23,-0.454 -4.269,-0.75 -5.714,-0.869c-1.775,-0.711 -4.277,-1.482 -6.307,-1.431c-3.726,0.092 -6.888,1.641 -9.129,4.842c-3.165,4.522 -2.064,10.762 2.458,13.927c2.146,1.502 4.679,2.044 7.087,1.712Z" style="fill:#ff5b00;"/><path d="M122.837,409.461c1.505,0.968 3.422,1.698 6.095,1.698c5.519,-0 10,-4.481 10,-10c-0,-3.513 -1.815,-6.605 -4.56,-8.387c-0.955,-1.169 -2.126,-2.333 -3.361,-2.95c-1.322,-0.662 -3.436,-1.317 -6.149,-1.164c-2.71,0.153 -7.556,1.528 -9.143,2.057c-2.568,0.856 -5.111,1.047 -7.405,1.751c-3.103,0.952 -5.935,2.439 -8.468,4.972c-3.903,3.903 -3.903,10.239 -0,14.142c3.902,3.903 10.239,3.903 14.142,0c0.192,-0.192 0.486,-0.08 0.729,-0.14c0.711,-0.175 1.445,-0.311 2.193,-0.46c1.679,-0.334 3.399,-0.713 5.134,-1.292l0.793,-0.227Zm6.796,-18.275l0.006,0.001l-0.006,-0.001Z" style="fill:#ff5b00;"/><path d="M312.361,156.054c-1.706,-3.07 -4.984,-5.149 -8.743,-5.149c-5.519,0 -10,4.481 -10,10c0,6.4 5.634,12.872 12.393,12.872c5.519,-0 10,-4.481 10,-10c0,-3.109 -1.422,-5.888 -3.65,-7.723Z" style="fill:#ff5b00;"/><path d="M424.805,119.485c-4.169,4.798 -6.131,10.242 -6.892,16.527c-0.61,5.036 -0.339,10.757 -0.339,17.236c-0,5.519 4.481,10 10,10c5.519,-0 10,-4.481 10,-10c-0,-4.624 -0.199,-8.815 0.006,-12.607c0.179,-3.31 0.481,-6.233 2.808,-8.559c0.876,-0.876 1.732,-2.757 2.386,-4.488c1.194,-0.418 2.977,-1.038 4.132,-1.424c2.168,-0.726 4.237,-1.617 6.096,-2.746c0.805,0.053 1.602,0.101 1.852,0.101c5.38,-0 10.549,1.435 15.793,1.435c5.519,0 10,-4.48 10,-10c0,-5.519 -4.481,-10 -10,-10c-5.244,0 -10.413,-1.435 -15.793,-1.435c0.082,-0 0.324,0.007 0.324,0.007c0,0 -6.56,-0.201 -8.161,0.271c-2.086,0.614 -3.523,1.675 -4.499,2.651c-0.365,0.365 -0.947,0.396 -1.466,0.58c-1.237,0.438 -2.525,0.806 -3.763,1.212c-3.778,1.238 -7.155,2.934 -9.607,5.387c-1.116,1.116 -2.199,3.862 -2.877,5.852Z" style="fill:#ff5b00;"/><path d="M483.852,176.754l0.303,0.316c3.903,3.902 10.24,3.902 14.143,-0c3.902,-3.903 3.902,-10.24 -0,-14.142c-1.826,-1.826 -2.126,-2.355 -4.992,-3.788c-4.937,-2.468 -10.948,-0.464 -13.417,4.472c-2.381,4.763 -0.6,10.526 3.963,13.142Zm-0.513,-0.534c0.026,0.028 0.051,0.057 0.076,0.085l0.095,0.092l-0.171,-0.177Z" style="fill:#ff5b00;"/><path d="M530.522,73.802l-0,1.914c-0,5.519 4.48,10 10,10c5.519,-0 10,-4.481 10,-10l-0,-1.914c-0,-5.52 -4.481,-10 -10,-10c-5.52,-0 -10,4.48 -10,10Z" style="fill:#ff5b00;"/><path d="M537.592,92.267c-1.515,1.272 -3.544,3.23 -4.579,5.299c-0.631,1.263 -1.441,1.49 -2.387,1.886c-1.514,0.634 -3.195,1.302 -5.106,2.257c-4.244,2.122 -9.801,7.44 -12.927,11.911c-0.92,0.585 -1.889,1.222 -2.115,1.448c-4.425,4.425 -8.794,6.87 -11.445,12.171c-1.092,2.184 -1.749,5.028 -1.826,8.204c-0.087,3.651 0.77,8.071 0.77,10.626c0,2.45 -0.024,5.321 0.468,7.436c0.155,0.666 0.349,1.297 0.577,1.895l-0.088,1.677c0,1.561 1.156,7.212 2.132,9.832c0.877,2.353 2.096,3.802 2.712,4.418c0.445,0.445 2.476,2.065 3.5,2.873c1.679,3.164 5.007,5.32 8.835,5.32c5.52,0 10,-4.481 10,-10c0,-2.07 -0.609,-4.561 -2.371,-6.985c-0.851,-1.171 -2.834,-2.929 -4.335,-4.184l-0.467,-1.837c0.021,-1.698 0.025,-5.108 -0.251,-6.135c-0.191,-0.711 -0.434,-1.345 -0.714,-1.907l0.002,-2.403c0,-2.303 -0.595,-9.045 -0.72,-10.43c0.6,-0.849 1.45,-1.376 2.251,-2.019c1.318,-1.057 2.689,-2.138 4.053,-3.397c0.776,-0.424 1.797,-1.005 2.249,-1.353c1.595,-1.225 2.532,-2.606 3.076,-3.694c0.915,-1.829 3.613,-4.596 5.579,-5.579c7.71,-3.855 11.919,-4.596 15.998,-12.239c1.848,-1.633 6.28,-6.074 6.28,-11.063c0,-5.519 -4.481,-10 -10,-10c-4.086,0 -7.602,2.456 -9.151,5.972Zm-18.66,64.754l-0.008,0.472c-0,-0 0.01,-0.321 0.01,-0.416l-0.002,-0.056Z" style="fill:#ff5b00;"/><path d="M498.286,220.923c-0.597,0.157 -3.568,0.948 -4.806,1.456c-1.13,0.465 -2.047,1.015 -2.75,1.535c-2.097,0.176 -4.252,0.465 -5.781,0.918c-2.579,0.762 -4.427,2.031 -5.579,3.184c-3.29,3.29 -6.856,7.813 -10.529,11.486c-0.724,0.724 -1.652,2.742 -2.339,4.416c-1.824,2.185 -3.682,4.955 -5.798,7.071c-1.778,1.778 -3.059,4.212 -3.397,7.311c-0.133,1.219 0.037,3.834 0.124,4.99c-0.797,2.696 -1.278,5.495 -1.47,8.648c-3.67,-0.017 -7.714,0.117 -10.491,1.043c-7.009,2.336 -16.49,9.732 -21.617,14.859c-1.959,1.96 -3.208,6.645 -3.66,8.608c-1.001,2.194 -1.712,4.659 -2.29,7.2c-0.502,2.211 -0.747,4.544 -1.646,6.369c-1.633,-0.113 -3.269,-0.219 -4.955,-0.219c0.109,0 0.431,0.012 0.431,0.012c-0,-0 -5.175,-0.06 -6.438,0.311c-2.051,0.603 -3.458,1.65 -4.415,2.606c-1.067,1.067 -1.677,1.963 -2.686,2.412c-1.066,0.475 -2.425,0.402 -4.6,0.402c-0.351,0 -1.775,0.093 -2.791,0.164c-2.766,-1.135 -6.16,-1.932 -9.275,-2.057c-1.472,-0.295 -3.42,-0.626 -4.278,-0.518c-2.521,0.317 -4.506,1.411 -6.042,2.947c-1.386,1.386 -3.472,1.897 -5.216,2.694c-3.036,1.388 -5.73,2.987 -7.706,4.964c-1.274,1.273 -2.979,5.384 -3.723,7.282c-1.825,2.434 -3.058,5.609 -3.463,9.197c-0.453,4.013 0.133,8.596 1.163,12.073c-0.016,1.146 -0.041,5.42 0.339,7.164c0.574,2.637 1.792,4.686 3.291,6.184c0.632,0.633 0.561,1.602 0.499,2.461c-0.083,1.155 -0.31,2.351 -0.978,3.019c-4.045,4.046 -10.46,7.589 -14.836,11.965c-3.186,3.186 -5.626,6.801 -8.612,10.007c-1.315,0.163 -4.341,0.559 -5.971,0.884c-3.627,0.725 -6.672,2.228 -8.868,4.424c-1.136,1.136 -2.458,3.656 -3.116,4.996c-1.863,1.731 -4.247,3.526 -6.09,5.208c-1.52,0.702 -6.44,3.049 -8.024,4.632c-0.574,0.575 -1.128,1.529 -1.607,2.539c-2.112,1.327 -3.751,2.831 -4.879,4.853c-0.971,1.74 -1.707,3.906 -1.707,6.858c-0,5.52 4.481,10 10,10c4.024,0 7.497,-2.382 9.08,-5.813c1.567,-1.026 2.775,-2.585 3.664,-4.107c0.911,-0.387 2.065,-0.888 2.721,-1.21c1.715,-0.843 3.084,-1.841 4.049,-2.806c2.126,-2.125 5.447,-4.489 7.658,-6.7c0.794,-0.794 1.639,-2.163 2.309,-3.394c1.512,-0.193 3.759,-0.504 5.093,-0.775c3.612,-0.731 6.659,-2.235 8.87,-4.446c3.44,-3.44 6.051,-7.487 9.572,-11.008c4.376,-4.376 10.791,-7.919 14.836,-11.965c3.605,-3.605 6.336,-9.492 6.785,-15.724c0.392,-5.451 -0.909,-11.014 -4.149,-15.502c-0.046,-2.116 -0.201,-5.751 -0.699,-7.244c-0.411,-1.234 -0.468,-4.378 -0.472,-4.613c0.822,-1.461 1.725,-3.548 2.304,-4.957c1.118,-0.63 2.599,-0.968 3.951,-1.606c1.256,-0.594 2.489,-1.243 3.665,-1.974c0.579,0.03 1.381,0.148 1.829,0.221c0.804,0.551 1.788,1.052 2.988,1.405c1.6,0.472 8.16,0.271 8.16,0.271c0,-0 -0.242,0.007 -0.324,0.007c6.081,0 9.753,-0.803 12.735,-2.131c1.978,-0.88 3.701,-2.023 5.547,-3.603c3.057,0.037 5.964,0.393 9.014,0.455c1.653,0.332 4.157,0.756 5.371,0.571c2.463,-0.373 4.45,-1.465 5.991,-3.007c1.394,-1.394 2.506,-3.239 2.999,-5.622c0.235,-1.142 0.055,-3.874 -0.096,-5.602c0.645,-1.722 1.15,-3.58 1.582,-5.489c0.504,-2.224 0.76,-4.594 1.695,-6.465c0.537,-1.074 0.95,-2.85 1.214,-4.26c3.415,-3.202 8.27,-7.141 12.148,-8.433c2.491,-0.83 6.716,0.034 9.281,0.034c-0.093,0 -0.386,-0.009 -0.386,-0.009c-0,-0 5.767,0.131 7.158,-0.254c2.185,-0.605 3.646,-1.705 4.607,-2.666c1.265,-1.265 2.503,-3.16 3.103,-5.746c0.525,-2.269 0.304,-6.328 0.304,-8.025c0,-2.657 0.232,-4.816 0.923,-6.888c0.43,-1.291 0.5,-4.049 0.485,-6.042c1.667,-2.086 3.205,-4.292 4.756,-5.843c0.6,-0.6 1.482,-2.491 2.171,-4.121c2.63,-2.762 5.193,-5.847 7.629,-8.472c1.465,-0.109 3.842,-0.272 4.666,-0.272c1.854,0 5.323,-0.459 6.111,-0.568l0.061,-0.007l-0,-0.001l0.101,-0.013c4.899,-0.737 8.433,-4.912 8.511,-9.711c0.771,-2.4 0.64,-5.091 -0.575,-7.522c-2.303,-4.607 -7.693,-6.659 -12.414,-4.906Zm-128.064,122.478l-0.187,0.219c0.059,-0.059 0.123,-0.134 0.187,-0.219Z" style="fill:#ff5b00;"/><path d="M266.595,394.286l-0.345,0.047l-0.911,0.162c-1.275,-0.077 -3.583,-0.183 -4.509,-0.034c-2.751,0.441 -4.665,1.721 -5.92,2.977c-2.543,2.543 -4.967,4.967 -7.179,7.179c-1.179,1.178 -2.213,2.751 -2.815,4.793c-0.29,0.984 -0.454,3.333 -0.526,4.716c-0.529,1.346 -0.806,2.672 -0.952,3.71c-2.575,5.53 -3.422,10.686 -3.422,18.26c-0,1.299 0.095,2.584 0.273,3.836l-0.058,0.016l-0.106,0.032c-1.318,-0.077 -2.981,-0.126 -3.743,0.032c-2.293,0.473 -4.062,1.552 -5.402,2.892l-0.19,0.219c-0.784,0.282 -1.556,0.601 -2.299,0.949c-0.721,-0.057 -3.389,-0.272 -4.859,-0.407c-4.122,-0.378 -8.053,-0.015 -11.341,1.556c-0.302,0.038 -4.015,0.497 -5.827,0.497c-1.317,0 -4.063,-0.362 -5.851,-0.176c-1.371,0.143 -2.576,0.47 -3.58,0.88l-4.284,-0.338c-2.812,-1.126 -8.156,-1.282 -9.862,-1.299c-1.831,-0.743 -4.002,-1.289 -6.308,-1.68c-1.6,-0.272 -4.371,-0.791 -5.435,-0.992c-1.284,-1.393 -2.692,-3.133 -4.032,-4.473c-1.33,-1.33 -3.084,-2.402 -5.359,-2.872c-0.771,-0.159 -2.516,-0.104 -3.796,-0.029l-1.163,-0.261c-0.366,-0.073 -0.732,-0.147 -1.097,-0.22l-0.181,-0.033c-1.056,-1.048 -2.381,-2.233 -3.447,-2.766c-0.13,-0.065 -0.341,-0.159 -0.571,-0.259c-1.719,-1.396 -3.91,-2.232 -6.294,-2.232c-5.519,-0 -10,4.48 -10,10c0,2.545 0.848,5.192 3.152,7.469c0.633,0.625 2.305,1.586 3.559,2.256c1.088,1.132 2.941,2.956 4.082,3.526c2.021,1.011 7.199,1.81 7.199,1.81c-0,0 -0.676,-0.223 -0.978,-0.374c0.561,0.281 1.729,0.467 3.002,0.59c0.879,1.006 1.742,2.008 2.535,2.801c1.987,1.987 4.817,3.537 8.259,4.447c1.751,0.464 3.718,0.783 5.673,1.084c1.284,0.198 2.597,0.197 3.504,0.65c2.479,1.24 8.629,1.415 10.219,1.436c2.438,0.914 6.509,1.777 10.389,1.819c2.66,0.028 5.202,-0.347 7.253,-0.981c0.956,0.079 2.761,0.217 3.412,0.217c4.561,0 10.361,-0.698 13.865,-2.189c0.693,0.055 3.391,0.272 4.87,0.408c4.229,0.389 8.251,-0.002 11.581,-1.667c0.233,-0.117 0.649,-0.287 0.883,-0.38l2.781,-0c2.73,-0 5.206,-1.095 7.012,-2.871c0.559,-0.025 1.165,-0.037 1.623,-0.018c3.01,0.129 6.032,0.496 8.116,0.496c4.232,-0 6.665,-2.078 8.199,-4.273c0.443,-0.634 4.625,-7.171 -1.267,-12.953c-0.392,-0.384 -2.47,-2.177 -3.479,-3.044c-0.154,-0.489 -0.632,-2.098 -0.632,-3.131c-0,-4.299 0.23,-7.192 1.816,-10.364l0.103,-0.225c1.587,-0.048 4.149,-0.445 6.651,-2.909c0.203,-0.2 0.86,-1.107 1.492,-2.003c1.012,-0.169 2.063,-0.188 3.039,-0.423c3.283,-0.788 6.281,-2.188 8.857,-4.763l0.3,-0.341c1.872,1.384 3.847,2.641 5.865,3.65c2.057,1.029 6.524,1.727 10.875,1c4.4,-0.735 8.327,-2.875 9.761,-4.309l0.191,-0.214c2.681,0.661 5.598,1.035 8.424,1.495c1.686,0.274 3.472,0.061 4.523,1.112c3.902,3.902 10.239,3.902 14.142,-0c3.902,-3.903 3.902,-10.24 -0,-14.142c-2.836,-2.836 -6.541,-4.679 -10.798,-5.77c-3.652,-0.937 -7.861,-1.201 -11.556,-2.125c-1.13,-0.283 -8.354,-1.888 -10.241,-1.802c-3.662,0.169 -5.801,1.884 -6.913,2.996c-0.539,0.54 -1.131,1.511 -1.676,2.559c-1.942,-1.318 -3.725,-2.958 -5.24,-4.473c-0.974,-0.974 -2.367,-1.991 -4.342,-2.605c-1.582,-0.492 -7.9,-0.314 -7.9,-0.314c-0,0 0.285,-0.01 0.385,-0.01c-5.088,0 -8.447,0.759 -11.179,2.17Zm-123.673,54.945l0.203,0.117c0.084,0.042 0.297,0.139 0.297,0.139l-0.5,-0.256Z" style="fill:#ff5b00;"/></g><path d="M122.664,397.749l2.259,-11.411l72.628,-13.917l8.387,-3.417l31.454,-58.284l64.132,-47.859c-0,-0 20.101,23.451 123.477,-31.109c103.376,-54.56 85.914,12.984 85.914,12.984c-28.146,-0.834 -41.62,14.765 -38.401,49.06c-55.039,-5.983 -37.689,37.091 -37.689,37.091c-13.579,-1.915 -24.27,1.692 -32.607,7.771c-2.369,-2.707 -5.37,-5.362 -9.226,-6.394c-8.808,-2.358 -17.193,7.932 -17.394,8.198c-3.345,4.42 -6.756,21.784 4.135,26.005c0.433,0.168 0.868,0.323 1.304,0.464c-3.926,8.944 -5.439,16.003 -5.439,16.003l-14.956,14.358c-18.826,16.435 -48.255,34.441 -64.825,45.08c-0.891,-8.163 -0.142,-24.156 -10.219,-26.144c-9.941,-1.96 -29.753,9.792 -22.334,26.144c2.123,4.679 7.325,8.359 9.505,12.19c-76.669,31.159 -129.702,1.216 -152.318,-23.772c2.865,-0.395 1.667,3.152 4.66,2.287c9.775,-2.825 23.765,-12.744 18.183,-21.899c-2.36,-3.869 -16.534,-12.054 -20.63,-13.429Z" style="fill:none;stroke:#000;stroke-width:8.33px;"/><path d="M569.484,98.666c0,0 -27.161,17.918 -47.617,34.507c-12.569,10.194 -4.072,31.889 9.271,44.886" style="fill:none;stroke:#000;stroke-width:8.33px;"/><path d="M130.749,224.75l-10.298,-29.998l-37.477,0l-22.772,23.858l0,26.126l22.772,16.062c-1.702,-39.812 16.293,-48.564 47.775,-36.048Z" style="fill:#ff5b00;stroke:#000;stroke-width:8.33px;"/><path d="M133.577,144.073c1.45,-9.037 6.981,-11.612 16.271,-8.234l6.253,-10.793l-9.557,-13.664l-22.789,-0l-8.821,24.207l2.205,17.882l10.537,-0l5.901,-9.398Z" style="fill:#ff5b00;stroke:#000;stroke-width:8.33px;"/><path d="M236.643,98.666l-0,-18.707l-27.859,0l-22.788,14.702l18.868,14.703l13.156,-2.18c1.8,-10.298 8.328,-12.596 18.623,-8.518Z" style="fill:#ff5b00;stroke:#000;stroke-width:8.33px;"/><path d="M434.825,160.77c-1.978,-31.969 12.461,-42.732 41.847,-34.188l-2.02,-23.589l-29.895,-8.332l-39.696,14.703l-8.087,29.405l22.544,32.345l15.307,-10.344Z" style="fill:none;stroke:#000;stroke-width:8.33px;"/><path d="M57.427,310.091c-0,0 55.867,-2.965 53.889,49.537" style="fill:none;stroke:#000;stroke-width:8.33px;"/><path d="M289.8,349.366c0,-0 -6.508,-48.302 47.86,-39.275" style="fill:none;stroke:#000;stroke-width:8.33px;"/><path d="M332.89,214.437l-0,-19.685l-31.236,0l-16.418,19.685l9.802,13.338l14.855,0l5.746,-5.967c3.421,-8.779 9.256,-11.007 17.251,-7.371Z" style="fill:#ff5b00;stroke:#000;stroke-width:8.33px;"/><path d="M108.012,418.102c-0,-0 10.98,-12.749 30.277,-2.335" style="fill:none;stroke:#000;stroke-width:8.33px;"/><path d="M357.988,100.15c20.91,-2.625 56.48,-10.925 112.878,-34.451c104.693,-43.672 98.551,33.101 98.551,33.101c-96.457,21.941 -70.865,50.031 -53.656,81.044l-0,60.837c-4.495,-1.758 -13.62,-10.376 -18.689,-10.376c-22.906,0 -41.503,19.603 -41.503,43.747c-0,2.226 0.158,4.414 0.463,6.55c-18.919,-1.263 -33.879,3.763 -39.042,14.853c-2.248,4.83 -2.42,10.343 -0.81,16.159c-11.274,1.071 -21.893,4.355 -31.079,9.739c-2.021,-2.85 -4.791,-5.082 -8.17,-6.333c-9.969,-3.688 -21.486,2.566 -25.702,13.959c-3.617,9.777 -0.69,20.182 6.515,25.267c-2.656,7.546 -3.802,15.513 -3.547,23.583c-19.628,11.926 -39.595,26.934 -55.666,38.46c-0.956,-9.932 -6.987,-18.706 -16.379,-22.182c-13.461,-4.98 -28.762,2.795 -34.149,17.353c-4.021,10.867 -1.388,22.462 5.806,29.714c-30.963,12.379 -87.543,27.452 -134.807,-12.484c8.198,2.737 16.815,-0.628 19.429,-7.691c2.674,-7.228 -1.947,-15.611 -10.315,-18.707c-8.367,-3.096 -17.332,0.259 -20.007,7.488c-1.023,2.766 -0.978,5.702 -0.064,8.444c-9.979,-10.712 -19.388,-24.293 -27.85,-41.341l-0.354,-0.714c4.384,0.219 8.871,-0.362 13.265,-1.842c19.189,-6.466 29.401,-27.646 22.789,-47.268c-6.611,-19.622 -27.558,-30.304 -46.747,-23.839c-4.59,1.547 -8.666,3.935 -12.12,6.942c-21.4,-100.335 13.856,-192.128 27.97,-209.765c33.153,-41.429 57.431,-38.288 123.837,-26.323c38.017,6.85 72.941,14.437 95.943,19.7c-2.552,2.867 -4.619,6.242 -6.027,10.048c-6.148,16.617 2.57,35.18 19.456,41.429c16.887,6.248 35.588,-2.17 41.737,-18.787c3.311,-8.95 2.311,-18.464 -1.956,-26.314Zm-36.956,195.467c16.887,6.248 25.605,24.812 19.456,41.429c-6.148,16.617 -24.85,25.035 -41.737,18.786c-16.886,-6.248 -25.604,-24.812 -19.455,-41.429c6.148,-16.617 24.85,-25.035 41.736,-18.786Zm-106.83,6.701c4.113,1.522 6.233,6.053 4.732,10.111c-1.502,4.059 -6.06,6.118 -10.174,4.596c-4.113,-1.522 -6.233,-6.053 -4.731,-10.111c1.502,-4.058 6.06,-6.118 10.173,-4.596Zm-27.371,-117.639l-27.908,3.066l12.859,117.049l27.908,-3.066l-12.859,-117.049Zm-75.715,21.41c17.008,6.293 26.418,23.286 21.002,37.923c-5.416,14.637 -23.621,21.411 -40.628,15.118c-17.007,-6.293 -26.418,-23.286 -21.002,-37.922c5.416,-14.637 23.621,-21.412 40.628,-15.119Zm215.086,-3.877c6.324,2.34 9.499,9.531 7.088,16.049c-2.412,6.517 -9.504,9.909 -15.827,7.57c-6.323,-2.34 -9.499,-9.531 -7.088,-16.049c2.412,-6.518 9.504,-9.909 15.827,-7.57Zm168.028,-36.41c3.518,1.302 5.356,5.112 4.102,8.503c-1.255,3.39 -5.13,5.086 -8.648,3.784c-3.519,-1.301 -5.356,-5.111 -4.102,-8.502c1.255,-3.391 5.13,-5.087 8.648,-3.785Zm-187.402,-4.166c3.009,1.113 4.722,3.987 3.825,6.412c-0.898,2.426 -4.31,3.412 -7.318,2.299c-3.009,-1.113 -4.481,-3.906 -3.584,-6.332c0.898,-2.426 4.069,-3.492 7.077,-2.379Zm154.047,-53.947c15.641,5.788 23.659,23.134 17.895,38.712c-5.764,15.579 -23.143,23.528 -38.784,17.74c-15.641,-5.787 -23.66,-23.134 -17.895,-38.712c5.764,-15.579 23.143,-23.528 38.784,-17.74Zm-317.011,15.594c7.104,2.629 10.778,10.423 8.198,17.395c-2.58,6.972 -10.442,10.498 -17.547,7.869c-7.104,-2.629 -10.777,-10.423 -8.198,-17.395c2.58,-6.972 10.442,-10.497 17.547,-7.869Zm85.344,-36.691c6.887,2.548 10.475,10.03 8.008,16.698c-2.467,6.667 -10.061,10.011 -16.948,7.463c-6.887,-2.548 -10.475,-10.03 -8.008,-16.698c2.467,-6.667 10.062,-10.012 16.948,-7.463Zm317.821,-15.119c3.009,1.113 4.553,4.447 3.446,7.44c-1.108,2.992 -4.45,4.518 -7.459,3.405c-3.008,-1.114 -4.552,-4.447 -3.445,-7.44c1.108,-2.993 4.449,-4.518 7.458,-3.405Z" style="fill:#fbaa2a;stroke:#000;stroke-width:8.33px;"/><path d="M973.139,115.115l-0.367,-7.998c-6.615,-1.277 -11.736,-5.945 -12.359,-11.978c-0.796,-7.694 6.025,-14.713 15.222,-15.663c9.197,-0.951 17.309,4.524 18.105,12.218c0.671,6.495 -4.085,12.509 -11.117,14.798l0.313,7.449c13.402,-1.59 22.129,-2.559 22.129,-2.559c-0,-0 20.462,11.533 22.659,29.026c11.072,9.433 17.768,21.702 17.768,35.108c0,12.075 -5.433,23.229 -14.607,32.221c-5.607,13.955 2.37,33.833 3.814,41.462c0.241,1.274 -0.052,2.643 -0.744,3.987c3.584,3.393 5.963,7.534 6.53,12.002c1.458,11.482 -9.599,20.805 -24.676,20.805c-15.076,-0 -28.5,-9.323 -29.957,-20.805c-1.335,-10.517 7.828,-19.222 20.962,-20.612c-5.667,-13.26 -23.201,-15.094 -31.051,-15.23c-1.278,0.049 -2.57,0.073 -3.87,0.073c-7.102,0 -13.969,-0.738 -20.47,-2.116c4.667,2.319 7.858,6.515 8.055,11.418c0.311,7.729 -6.938,14.306 -16.176,14.677c-9.239,0.371 -16.991,-5.603 -17.302,-13.332c-0.262,-6.524 4.863,-12.228 12.025,-14.07l-0.107,-2.659c-6.302,-2.409 -12.07,-5.466 -17.138,-9.051c-12.829,0.805 -25.208,1.487 -35.872,2.032l0.193,9.673c6.522,1.69 11.339,6.671 11.583,12.73c0.31,7.729 -6.938,14.306 -16.176,14.677c-9.239,0.371 -16.991,-5.603 -17.302,-13.332c-0.262,-6.524 4.863,-12.228 12.024,-14.07l-0.174,-9.188c-14.337,0.693 -23.74,1.061 -23.74,1.061c0,-0 -16.152,-7.777 -31.109,-6.581c-14.956,1.197 -309.292,33.448 -309.292,33.448l4.846,-64.892l304.446,-24.192c0,-0 13.76,-10.769 23.93,-19.144c2.222,-1.83 11.157,-4.06 23.758,-6.427l-0.714,-8.598c-6.666,-0.978 -11.992,-5.41 -12.887,-11.408c-1.141,-7.651 5.357,-14.97 14.501,-16.334c9.145,-1.364 17.496,3.739 18.637,11.39c0.964,6.458 -3.517,12.681 -10.438,15.284l0.659,7.927c13.423,-2.286 29.466,-4.638 45.573,-6.835l-1.019,-7.343c-6.655,-1.046 -11.935,-5.533 -12.768,-11.54c-1.062,-7.662 5.511,-14.914 14.669,-16.184c9.158,-1.269 17.456,3.92 18.519,11.582c0.896,6.468 -3.648,12.644 -10.596,15.175l0.97,6.995c14.366,-1.906 28.36,-3.651 40.138,-5.077Z" style="fill:url(#_Linear1);stroke:#000;stroke-width:8.33px;"/><path d="M1015.25,270.395c-0,0 8.27,-1.838 10.72,-5.207" style="fill:none;stroke:#fff;stroke-width:8.33px;"/><path d="M1020.62,154.002c-0,-0 14.855,15.701 5.36,28.679" style="fill:none;stroke:#fff;stroke-width:8.33px;"/><path d="M1015.25,204.235c-0,-0 -0.919,-1.532 -0,-3.982" style="fill:none;stroke:#fff;stroke-width:8.33px;"/><path d="M817.351,157.069l5.207,53.602" style="fill:none;stroke:#000;stroke-width:8.33px;"/><path d="M190.035,209.368l627.316,-43.816" style="fill:none;stroke:#000;stroke-width:2.08px;"/><path d="M190.035,222.253l627.316,-49.888" style="fill:none;stroke:#000;stroke-width:2.08px;"/><path d="M194.623,234.17l622.728,-54.892" style="fill:none;stroke:#000;stroke-width:2.08px;"/><path d="M819.955,192.697l-622.963,65.899l-2.369,-11.898l622.728,-60.787" style="fill:none;stroke:#000;stroke-width:2.08px;"/><path d="M199.011,271.414l620.944,-71.684" style="fill:none;stroke:#000;stroke-width:2.08px;"/></g><defs><linearGradient id="_Linear1" x1="0" y1="0" x2="1" y2="0" gradientUnits="userSpaceOnUse" gradientTransform="matrix(534.577,0,0,174.611,510.915,198.687)"><stop offset="0" style="stop-color:#774132;stop-opacity:1"/><stop offset="0.45" style="stop-color:#7c4532;stop-opacity:1"/><stop offset="1" style="stop-color:#fbaa2a;stop-opacity:1"/></linearGradient></defs></svg>