<?xml version="1.0" encoding="UTF-8" standalone="no"?><!DOCTYPE svg PUBLIC "-//W3C//DTD SVG 1.1//EN" "http://www.w3.org/Graphics/SVG/1.1/DTD/svg11.dtd"><svg width="100%" height="100%" viewBox="0 0 1086 527" version="1.1" xmlns="http://www.w3.org/2000/svg" xmlns:xlink="http://www.w3.org/1999/xlink" xml:space="preserve" xmlns:serif="http://www.serif.com/" style="fill-rule:evenodd;clip-rule:evenodd;stroke-linecap:round;stroke-linejoin:round;stroke-miterlimit:1.5;"><rect id="Plan-de-travail4" serif:id="Plan de travail4" x="0" y="0" width="1085.35" height="526.092" style="fill:none;"/><g id="Logo"><g><path d="M211.592,302.386c-0.72,0.266 -1.415,0.618 -2.069,1.056c-1.171,0.489 -2.309,1.08 -2.951,1.723c-1.169,1.168 -2.345,2.901 -2.856,5.317c-0.475,2.247 -0.025,6.429 1.389,9.043c2.035,3.764 5.386,5.423 8.299,5.757c2.628,0.302 5.75,-0.108 8.746,-3.104c0.955,-0.955 2.374,-4.055 3.102,-5.74c2.277,-3.335 2.385,-7.87 -0.067,-11.373c-3.088,-4.411 -9.104,-5.567 -13.593,-2.679Z" style="fill:#ff5b00;"/><path d="M277.267,349.884l0.323,0.003l0.515,-0.013c5.071,-0.257 9.145,-4.292 9.463,-9.346c0.808,-1.86 1.238,-3.922 1.971,-5.744c0.773,-0.802 1.471,-1.581 1.652,-1.942c0.267,-0.536 0.946,-1.736 0.946,-1.736c0,-0 -0.252,0.297 -0.369,0.415c1.237,-1.237 2.864,-5.385 3.467,-7.006c0.737,-1.455 1.685,-3.133 2.327,-4.415c0.151,-0.302 0.311,-0.692 0.467,-1.115c0.669,-0.148 1.336,-0.319 1.837,-0.486c5.837,-1.946 12.68,-1.405 18.953,-2.663c1.652,0.139 3.886,0.196 5.306,-0.278c-0.079,0.027 -0.248,0.074 -0.248,0.074c0,-0 1.723,-0.298 3.546,-0.726c0.622,0.104 1.25,0.185 1.626,0.185c0.55,0 2.447,-0.116 3.848,-0.208c1.408,0.758 3.018,1.189 4.728,1.189c5.519,-0 10,-4.481 10,-10c0,-4.412 -2.04,-8.028 -6.698,-10.081c-1.475,-0.65 -3.606,-1.149 -6.02,-1.211c-2.183,-0.057 -4.881,0.311 -5.858,0.311c0.512,0 1.795,0.196 1.795,0.196c0,-0 -5.721,-0.532 -8.344,0.456c0.296,-0.118 0.615,-0.229 0.615,-0.229c-0,0 -1.581,0.235 -3.11,0.539c-1.45,-0.155 -3.359,-0.252 -4.653,0.072c-7.129,1.782 -15.077,1.156 -21.811,3.4c-2.919,0.973 -5.857,1.236 -8.357,2.944c-2.581,1.762 -4.96,7.294 -5.576,8.812l-0.154,0.298c-3.842,-0.393 -8.241,0.532 -9.957,6.028c-0.133,0.423 -0.779,2.571 -0.873,2.947c-0.319,1.277 -0.353,2.869 -0.958,4.079c-0.694,1.388 -1.214,3.289 -1.262,5.342c-0.049,2.077 0.425,4.393 0.425,4.393c0.166,0.786 0.422,1.533 0.755,2.231l0.006,0.593l0,1.199l-0.009,0.166c-0.003,0.134 -0.006,0.268 -0.009,0.402l0.018,0.747l0,0.181l0.012,0.011c0.074,1.284 0.289,2.446 0.384,2.773c1.909,6.559 7.831,7.164 9.281,7.213Zm10.107,-8.892c-0.531,1.608 -1.395,3.755 -2.506,5.01c1.165,-1.229 2.099,-2.843 2.479,-4.834l0.027,-0.176Zm0.204,-0.605c0.242,-0.718 0.417,-1.491 0.417,-1.491c0,0 -0.144,0.597 -0.417,1.465l-0,0.026Zm40.229,-32.414l0.007,0.035l-0.052,-0.293l0.045,0.258Zm-0.136,-0.929c0.019,0.157 0.038,0.313 0.056,0.47l0.011,0.062l-0.061,-0.483l-0.039,-0.505l0.033,0.456Zm-0.033,-0.459l-0.013,-0.513c0,0.173 0.004,0.344 0.013,0.513Z" style="fill:#ff5b00;"/><path d="M74.768,311.611c1.287,0.305 2.971,0.554 4.231,0.716l0.826,0.544c0.89,0.557 2.083,0.942 2.791,1.65c2.108,2.107 7.073,4.624 10.841,6.484l0.687,1.446c0.875,1.75 2.305,3.683 3.547,5.125c0.753,1.914 2.395,5.851 3.59,7.046c0.808,0.807 1.109,1.869 1.677,2.833c1.111,1.887 2.417,3.736 4.241,5.473c1.141,1.087 2.635,2.505 3.153,4.057c1.923,5.771 1.338,12.628 3.35,18.665c1.745,5.236 7.413,8.07 12.649,6.325c5.236,-1.745 8.07,-7.413 6.325,-12.649c-2.013,-6.038 -1.427,-12.895 -3.35,-18.665c-1.49,-4.468 -5.049,-9.087 -8.334,-12.216c-0.867,-0.825 -1.199,-1.844 -1.704,-2.727c-0.785,-1.369 -1.631,-2.678 -2.653,-3.905c-0.749,-1.904 -2.4,-5.872 -3.604,-7.076c-0.273,-0.273 -0.765,-0.762 -0.999,-1.23c-0.702,-1.406 -2.059,-4.402 -3.368,-6.014c-1.259,-1.55 -2.676,-2.595 -3.975,-3.244l-8.168,-4.094c-1.807,-1.671 -5.826,-4.094 -6.284,-4.369c-1.028,-0.958 -2.306,-1.782 -3.864,-2.357c-1.23,-0.454 -4.269,-0.749 -5.714,-0.868c-1.775,-0.712 -4.277,-1.482 -6.307,-1.432c-3.726,0.093 -6.888,1.642 -9.129,4.843c-3.165,4.522 -2.064,10.762 2.458,13.927c2.146,1.502 4.679,2.043 7.087,1.712Z" style="fill:#ff5b00;"/><path d="M122.837,412.427c1.505,0.968 3.422,1.699 6.095,1.699c5.519,-0 10,-4.481 10,-10c-0,-3.513 -1.815,-6.606 -4.56,-8.387c-0.955,-1.169 -2.126,-2.333 -3.361,-2.951c-1.322,-0.661 -3.436,-1.316 -6.149,-1.163c-2.71,0.152 -7.556,1.528 -9.143,2.057c-2.568,0.856 -5.111,1.047 -7.405,1.751c-3.103,0.952 -5.935,2.439 -8.468,4.972c-3.903,3.902 -3.903,10.239 -0,14.142c3.902,3.902 10.239,3.902 14.142,-0c0.192,-0.193 0.486,-0.08 0.729,-0.14c0.711,-0.175 1.445,-0.311 2.193,-0.46c1.679,-0.334 3.399,-0.713 5.134,-1.292l0.793,-0.228Zm6.796,-18.274l0.006,0l-0.006,-0Z" style="fill:#ff5b00;"/><path d="M312.361,159.021c-1.706,-3.07 -4.984,-5.149 -8.743,-5.149c-5.519,0 -10,4.481 -10,10c0,6.4 5.634,12.872 12.393,12.872c5.519,-0 10,-4.481 10,-10c0,-3.109 -1.422,-5.889 -3.65,-7.723Z" style="fill:#ff5b00;"/><path d="M424.805,122.452c-4.169,4.798 -6.131,10.242 -6.892,16.527c-0.61,5.036 -0.339,10.757 -0.339,17.236c-0,5.519 4.481,10 10,10c5.519,-0 10,-4.481 10,-10c-0,-4.624 -0.199,-8.815 0.006,-12.607c0.179,-3.31 0.481,-6.233 2.808,-8.559c0.876,-0.876 1.732,-2.757 2.386,-4.488c1.194,-0.418 2.977,-1.038 4.132,-1.425c2.168,-0.726 4.237,-1.616 6.096,-2.745c0.805,0.053 1.602,0.1 1.852,0.1c5.38,0 10.549,1.436 15.793,1.436c5.519,0 10,-4.481 10,-10c0,-5.519 -4.481,-10 -10,-10c-5.244,0 -10.413,-1.436 -15.793,-1.436c0.082,0 0.324,0.008 0.324,0.008c0,-0 -6.56,-0.201 -8.161,0.27c-2.086,0.615 -3.523,1.675 -4.499,2.651c-0.365,0.365 -0.947,0.397 -1.466,0.581c-1.237,0.438 -2.525,0.806 -3.763,1.211c-3.778,1.238 -7.155,2.935 -9.607,5.387c-1.116,1.116 -2.199,3.862 -2.877,5.853Z" style="fill:#ff5b00;"/><path d="M483.852,179.72l0.303,0.316c3.903,3.903 10.24,3.903 14.143,0c3.902,-3.902 3.902,-10.239 -0,-14.142c-1.826,-1.825 -2.126,-2.354 -4.992,-3.787c-4.937,-2.469 -10.948,-0.465 -13.417,4.472c-2.381,4.763 -0.6,10.526 3.963,13.141Zm-0.513,-0.533c0.026,0.028 0.051,0.056 0.076,0.084l0.095,0.093l-0.171,-0.177Z" style="fill:#ff5b00;"/><path d="M530.522,76.768l-0,1.915c-0,5.519 4.48,10 10,10c5.519,-0 10,-4.481 10,-10l-0,-1.915c-0,-5.519 -4.481,-10 -10,-10c-5.52,0 -10,4.481 -10,10Z" style="fill:#ff5b00;"/><path d="M537.592,95.234c-1.515,1.272 -3.544,3.229 -4.579,5.299c-0.631,1.263 -1.441,1.49 -2.387,1.886c-1.514,0.634 -3.195,1.301 -5.106,2.257c-4.244,2.122 -9.801,7.439 -12.927,11.911c-0.92,0.585 -1.889,1.222 -2.115,1.448c-4.425,4.425 -8.794,6.87 -11.445,12.171c-1.092,2.183 -1.749,5.028 -1.826,8.204c-0.087,3.651 0.77,8.071 0.77,10.626c0,2.45 -0.024,5.32 0.468,7.435c0.155,0.666 0.349,1.298 0.577,1.896l-0.088,1.676c0,1.562 1.156,7.213 2.132,9.832c0.877,2.354 2.096,3.802 2.712,4.418c0.445,0.446 2.476,2.066 3.5,2.874c1.679,3.164 5.007,5.32 8.835,5.32c5.52,-0 10,-4.481 10,-10c0,-2.07 -0.609,-4.561 -2.371,-6.985c-0.851,-1.172 -2.834,-2.929 -4.335,-4.184l-0.467,-1.837c0.021,-1.698 0.025,-5.108 -0.251,-6.135c-0.191,-0.711 -0.434,-1.345 -0.714,-1.908l0.002,-2.402c0,-2.303 -0.595,-9.045 -0.72,-10.431c0.6,-0.848 1.45,-1.376 2.251,-2.018c1.318,-1.058 2.689,-2.139 4.053,-3.398c0.776,-0.423 1.797,-1.005 2.249,-1.352c1.595,-1.225 2.532,-2.607 3.076,-3.695c0.915,-1.829 3.613,-4.595 5.579,-5.578c7.71,-3.855 11.919,-4.597 15.998,-12.239c1.848,-1.633 6.28,-6.074 6.28,-11.063c0,-5.519 -4.481,-10 -10,-10c-4.086,0 -7.602,2.456 -9.151,5.972Zm-18.66,64.754l-0.008,0.471c-0,0 0.01,-0.32 0.01,-0.416l-0.002,-0.055Z" style="fill:#ff5b00;"/><path d="M498.286,223.89c-0.597,0.157 -3.568,0.947 -4.806,1.456c-1.13,0.464 -2.047,1.015 -2.75,1.535c-2.097,0.176 -4.252,0.465 -5.781,0.917c-2.579,0.763 -4.427,2.032 -5.579,3.185c-3.29,3.289 -6.856,7.813 -10.529,11.486c-0.724,0.724 -1.652,2.742 -2.339,4.416c-1.824,2.185 -3.682,4.954 -5.798,7.07c-1.778,1.779 -3.059,4.212 -3.397,7.311c-0.133,1.22 0.037,3.835 0.124,4.991c-0.797,2.696 -1.278,5.494 -1.47,8.648c-3.67,-0.018 -7.714,0.117 -10.491,1.043c-7.009,2.336 -16.49,9.732 -21.617,14.859c-1.959,1.959 -3.208,6.645 -3.66,8.607c-1.001,2.194 -1.712,4.66 -2.29,7.201c-0.502,2.211 -0.747,4.543 -1.646,6.368c-1.633,-0.112 -3.269,-0.218 -4.955,-0.218c0.109,-0 0.431,0.012 0.431,0.012c-0,-0 -5.175,-0.06 -6.438,0.311c-2.051,0.602 -3.458,1.649 -4.415,2.606c-1.067,1.067 -1.677,1.963 -2.686,2.412c-1.066,0.475 -2.425,0.402 -4.6,0.402c-0.351,-0 -1.775,0.093 -2.791,0.163c-2.766,-1.134 -6.16,-1.931 -9.275,-2.056c-1.472,-0.296 -3.42,-0.627 -4.278,-0.519c-2.521,0.318 -4.506,1.412 -6.042,2.948c-1.386,1.386 -3.472,1.896 -5.216,2.694c-3.036,1.388 -5.73,2.987 -7.706,4.963c-1.274,1.274 -2.979,5.385 -3.723,7.283c-1.825,2.433 -3.058,5.609 -3.463,9.197c-0.453,4.012 0.133,8.596 1.163,12.073c-0.016,1.146 -0.041,5.42 0.339,7.164c0.574,2.637 1.792,4.686 3.291,6.184c0.632,0.632 0.561,1.602 0.499,2.46c-0.083,1.155 -0.31,2.352 -0.978,3.02c-4.045,4.045 -10.46,7.589 -14.836,11.965c-3.186,3.186 -5.626,6.801 -8.612,10.007c-1.315,0.163 -4.341,0.558 -5.971,0.884c-3.627,0.725 -6.672,2.228 -8.868,4.424c-1.136,1.136 -2.458,3.656 -3.116,4.996c-1.863,1.731 -4.247,3.526 -6.09,5.208c-1.52,0.701 -6.44,3.048 -8.024,4.632c-0.574,0.574 -1.128,1.528 -1.607,2.539c-2.112,1.327 -3.751,2.83 -4.879,4.853c-0.971,1.74 -1.707,3.905 -1.707,6.858c-0,5.519 4.481,10 10,10c4.024,0 7.497,-2.382 9.08,-5.814c1.567,-1.025 2.775,-2.584 3.664,-4.107c0.911,-0.386 2.065,-0.887 2.721,-1.209c1.715,-0.843 3.084,-1.841 4.049,-2.806c2.126,-2.126 5.447,-4.49 7.658,-6.701c0.794,-0.794 1.639,-2.163 2.309,-3.393c1.512,-0.193 3.759,-0.505 5.093,-0.775c3.612,-0.732 6.659,-2.235 8.87,-4.446c3.44,-3.441 6.051,-7.487 9.572,-11.008c4.376,-4.376 10.791,-7.919 14.836,-11.965c3.605,-3.605 6.336,-9.492 6.785,-15.725c0.392,-5.45 -0.909,-11.013 -4.149,-15.501c-0.046,-2.117 -0.201,-5.751 -0.699,-7.244c-0.411,-1.234 -0.468,-4.378 -0.472,-4.614c0.822,-1.46 1.725,-3.547 2.304,-4.956c1.118,-0.63 2.599,-0.968 3.951,-1.607c1.256,-0.593 2.489,-1.242 3.665,-1.974c0.579,0.031 1.381,0.149 1.829,0.222c0.804,0.551 1.788,1.052 2.988,1.405c1.6,0.472 8.16,0.27 8.16,0.27c0,0 -0.242,0.008 -0.324,0.008c6.081,-0 9.753,-0.803 12.735,-2.131c1.978,-0.881 3.701,-2.023 5.547,-3.603c3.057,0.037 5.964,0.393 9.014,0.455c1.653,0.331 4.157,0.755 5.371,0.571c2.463,-0.373 4.45,-1.466 5.991,-3.007c1.394,-1.394 2.506,-3.239 2.999,-5.623c0.235,-1.141 0.055,-3.873 -0.096,-5.601c0.645,-1.722 1.15,-3.58 1.582,-5.489c0.504,-2.224 0.76,-4.594 1.695,-6.465c0.537,-1.074 0.95,-2.851 1.214,-4.261c3.415,-3.201 8.27,-7.14 12.148,-8.433c2.491,-0.83 6.716,0.035 9.281,0.035c-0.093,0 -0.386,-0.01 -0.386,-0.01c-0,0 5.767,0.132 7.158,-0.253c2.185,-0.605 3.646,-1.706 4.607,-2.666c1.265,-1.265 2.503,-3.16 3.103,-5.747c0.525,-2.268 0.304,-6.328 0.304,-8.024c0,-2.657 0.232,-4.816 0.923,-6.888c0.43,-1.291 0.5,-4.049 0.485,-6.043c1.667,-2.085 3.205,-4.291 4.756,-5.842c0.6,-0.6 1.482,-2.491 2.171,-4.121c2.63,-2.762 5.193,-5.847 7.629,-8.472c1.465,-0.109 3.842,-0.272 4.666,-0.272c1.854,0 5.323,-0.459 6.111,-0.568l0.061,-0.007l-0,-0.001l0.101,-0.014c4.899,-0.736 8.433,-4.911 8.511,-9.71c0.771,-2.4 0.64,-5.091 -0.575,-7.522c-2.303,-4.607 -7.693,-6.66 -12.414,-4.906Zm-128.064,122.478l-0.187,0.219c0.059,-0.059 0.123,-0.134 0.187,-0.219Z" style="fill:#ff5b00;"/><path d="M266.595,397.252l-0.345,0.048l-0.911,0.162c-1.275,-0.077 -3.583,-0.183 -4.509,-0.035c-2.751,0.441 -4.665,1.722 -5.92,2.978c-2.543,2.542 -4.967,4.967 -7.179,7.179c-1.179,1.178 -2.213,2.75 -2.815,4.792c-0.29,0.985 -0.454,3.334 -0.526,4.717c-0.529,1.346 -0.806,2.672 -0.952,3.71c-2.575,5.53 -3.422,10.686 -3.422,18.26c-0,1.299 0.095,2.584 0.273,3.836l-0.058,0.015l-0.106,0.033c-1.318,-0.078 -2.981,-0.126 -3.743,0.032c-2.293,0.473 -4.062,1.552 -5.402,2.892l-0.19,0.218c-0.784,0.283 -1.556,0.602 -2.299,0.95c-0.721,-0.057 -3.389,-0.273 -4.859,-0.407c-4.122,-0.379 -8.053,-0.015 -11.341,1.556c-0.302,0.038 -4.015,0.497 -5.827,0.497c-1.317,0 -4.063,-0.362 -5.851,-0.176c-1.371,0.143 -2.576,0.469 -3.58,0.88l-4.284,-0.338c-2.812,-1.126 -8.156,-1.282 -9.862,-1.299c-1.831,-0.743 -4.002,-1.289 -6.308,-1.68c-1.6,-0.272 -4.371,-0.791 -5.435,-0.993c-1.284,-1.392 -2.692,-3.132 -4.032,-4.473c-1.33,-1.329 -3.084,-2.401 -5.359,-2.871c-0.771,-0.159 -2.516,-0.104 -3.796,-0.03l-1.163,-0.26c-0.366,-0.074 -0.732,-0.147 -1.097,-0.22l-0.181,-0.033c-1.056,-1.049 -2.381,-2.233 -3.447,-2.766c-0.13,-0.065 -0.341,-0.16 -0.571,-0.259c-1.719,-1.396 -3.91,-2.233 -6.294,-2.233c-5.519,0 -10,4.481 -10,10c0,2.545 0.848,5.192 3.152,7.469c0.633,0.626 2.305,1.587 3.559,2.257c1.088,1.132 2.941,2.956 4.082,3.526c2.021,1.011 7.199,1.81 7.199,1.81c-0,-0 -0.676,-0.223 -0.978,-0.374c0.561,0.28 1.729,0.467 3.002,0.59c0.879,1.006 1.742,2.007 2.535,2.801c1.987,1.987 4.817,3.537 8.259,4.447c1.751,0.463 3.718,0.783 5.673,1.084c1.284,0.197 2.597,0.196 3.504,0.65c2.479,1.239 8.629,1.414 10.219,1.435c2.438,0.914 6.509,1.778 10.389,1.819c2.66,0.029 5.202,-0.346 7.253,-0.98c0.956,0.079 2.761,0.217 3.412,0.217c4.561,0 10.361,-0.699 13.865,-2.189c0.693,0.055 3.391,0.271 4.87,0.407c4.229,0.39 8.251,-0.002 11.581,-1.667c0.233,-0.116 0.649,-0.287 0.883,-0.38l2.781,0c2.73,0 5.206,-1.094 7.012,-2.87c0.559,-0.025 1.165,-0.038 1.623,-0.018c3.01,0.129 6.032,0.495 8.116,0.495c4.232,0 6.665,-2.077 8.199,-4.272c0.443,-0.634 4.625,-7.171 -1.267,-12.953c-0.392,-0.385 -2.47,-2.178 -3.479,-3.044c-0.154,-0.489 -0.632,-2.098 -0.632,-3.131c-0,-4.299 0.23,-7.192 1.816,-10.364l0.103,-0.226c1.587,-0.047 4.149,-0.444 6.651,-2.908c0.203,-0.2 0.86,-1.107 1.492,-2.004c1.012,-0.168 2.063,-0.188 3.039,-0.422c3.283,-0.788 6.281,-2.188 8.857,-4.763l0.3,-0.341c1.872,1.383 3.847,2.641 5.865,3.649c2.057,1.029 6.524,1.728 10.875,1.001c4.4,-0.735 8.327,-2.876 9.761,-4.309l0.191,-0.215c2.681,0.662 5.598,1.036 8.424,1.496c1.686,0.274 3.472,0.061 4.523,1.111c3.902,3.903 10.239,3.903 14.142,0c3.902,-3.902 3.902,-10.239 -0,-14.142c-2.836,-2.835 -6.541,-4.678 -10.798,-5.769c-3.652,-0.937 -7.861,-1.202 -11.556,-2.126c-1.13,-0.282 -8.354,-1.888 -10.241,-1.801c-3.662,0.169 -5.801,1.884 -6.913,2.996c-0.539,0.539 -1.131,1.511 -1.676,2.559c-1.942,-1.318 -3.725,-2.958 -5.24,-4.473c-0.974,-0.975 -2.367,-1.991 -4.342,-2.605c-1.582,-0.492 -7.9,-0.314 -7.9,-0.314c-0,0 0.285,-0.01 0.385,-0.01c-5.088,-0 -8.447,0.759 -11.179,2.169Zm-123.673,54.946l0.203,0.116c0.084,0.043 0.297,0.14 0.297,0.14l-0.5,-0.256Z" style="fill:#ff5b00;"/></g><path d="M122.664,400.716l2.259,-11.412l72.628,-13.916l8.387,-3.418l31.454,-58.283l64.132,-47.86c-0,0 20.101,23.451 123.477,-31.108c103.376,-54.56 85.914,12.984 85.914,12.984c-28.146,-0.834 -41.62,14.764 -38.401,49.059c-55.039,-5.982 -37.689,37.091 -37.689,37.091c-13.579,-1.915 -24.27,1.692 -32.607,7.772c-2.369,-2.707 -5.37,-5.362 -9.226,-6.394c-8.808,-2.358 -17.193,7.932 -17.394,8.197c-3.345,4.421 -6.756,21.784 4.135,26.006c0.433,0.168 0.868,0.323 1.304,0.464c-3.926,8.943 -5.439,16.003 -5.439,16.003l-14.956,14.358c-18.826,16.435 -48.255,34.44 -64.825,45.079c-0.891,-8.162 -0.142,-24.156 -10.219,-26.143c-9.941,-1.96 -29.753,9.792 -22.334,26.143c2.123,4.68 7.325,8.36 9.505,12.191c-76.669,31.159 -129.702,1.216 -152.318,-23.772c2.865,-0.395 1.667,3.152 4.66,2.287c9.775,-2.825 23.765,-12.745 18.183,-21.899c-2.36,-3.869 -16.534,-12.055 -20.63,-13.429Z" style="fill:none;stroke:#000;stroke-width:8.33px;"/><path d="M569.484,101.633c0,-0 -27.161,17.917 -47.617,34.507c-12.569,10.194 -4.072,31.888 9.271,44.886" style="fill:none;stroke:#000;stroke-width:8.33px;"/><path d="M130.749,227.716l-10.298,-29.997l-37.477,0l-22.772,23.858l0,26.126l22.772,16.062c-1.702,-39.812 16.293,-48.564 47.775,-36.049Z" style="fill:#ff5b00;stroke:#000;stroke-width:8.33px;"/><path d="M133.577,147.04c1.45,-9.037 6.981,-11.612 16.271,-8.234l6.253,-10.793l-9.557,-13.665l-22.789,0l-8.821,24.208l2.205,17.882l10.537,-0l5.901,-9.398Z" style="fill:#ff5b00;stroke:#000;stroke-width:8.33px;"/><path d="M236.643,101.633l-0,-18.707l-27.859,-0l-22.788,14.702l18.868,14.703l13.156,-2.181c1.8,-10.297 8.328,-12.595 18.623,-8.517Z" style="fill:#ff5b00;stroke:#000;stroke-width:8.33px;"/><path d="M434.825,163.737c-1.978,-31.969 12.461,-42.732 41.847,-34.188l-2.02,-23.59l-29.895,-8.331l-39.696,14.703l-8.087,29.404l22.544,32.345l15.307,-10.343Z" style="fill:none;stroke:#000;stroke-width:8.33px;"/><path d="M57.427,313.058c-0,-0 55.867,-2.965 53.889,49.537" style="fill:none;stroke:#000;stroke-width:8.33px;"/><path d="M289.8,352.332c0,0 -6.508,-48.302 47.86,-39.274" style="fill:none;stroke:#000;stroke-width:8.33px;"/><path d="M332.89,217.404l-0,-19.685l-31.236,0l-16.418,19.685l9.802,13.338l14.855,-0l5.746,-5.967c3.421,-8.779 9.256,-11.007 17.251,-7.371Z" style="fill:#ff5b00;stroke:#000;stroke-width:8.33px;"/><path d="M108.012,421.068c-0,0 10.98,-12.748 30.277,-2.334" style="fill:none;stroke:#000;stroke-width:8.33px;"/><path d="M357.988,103.116c20.91,-2.624 56.48,-10.924 112.878,-34.45c104.693,-43.672 98.551,33.1 98.551,33.1c-96.457,21.941 -70.865,50.032 -53.656,81.045l-0,60.836c-4.495,-1.757 -13.62,-10.375 -18.689,-10.375c-22.906,0 -41.503,19.602 -41.503,43.747c-0,2.226 0.158,4.413 0.463,6.55c-18.919,-1.263 -33.879,3.763 -39.042,14.852c-2.248,4.831 -2.42,10.343 -0.81,16.159c-11.274,1.072 -21.893,4.356 -31.079,9.739c-2.021,-2.849 -4.791,-5.082 -8.17,-6.332c-9.969,-3.689 -21.486,2.566 -25.702,13.959c-3.617,9.777 -0.69,20.181 6.515,25.267c-2.656,7.546 -3.802,15.512 -3.547,23.582c-19.628,11.927 -39.595,26.935 -55.666,38.461c-0.956,-9.932 -6.987,-18.706 -16.379,-22.182c-13.461,-4.98 -28.762,2.795 -34.149,17.353c-4.021,10.867 -1.388,22.462 5.806,29.714c-30.963,12.378 -87.543,27.452 -134.807,-12.484c8.198,2.737 16.815,-0.628 19.429,-7.691c2.674,-7.229 -1.947,-15.611 -10.315,-18.707c-8.367,-3.096 -17.332,0.259 -20.007,7.488c-1.023,2.766 -0.978,5.701 -0.064,8.444c-9.979,-10.712 -19.388,-24.294 -27.85,-41.341l-0.354,-0.715c4.384,0.22 8.871,-0.361 13.265,-1.842c19.189,-6.465 29.401,-27.645 22.789,-47.267c-6.611,-19.623 -27.558,-30.304 -46.747,-23.839c-4.59,1.546 -8.666,3.935 -12.12,6.942c-21.4,-100.335 13.856,-192.128 27.97,-209.765c33.153,-41.429 57.431,-38.288 123.837,-26.323c38.017,6.85 72.941,14.437 95.943,19.7c-2.552,2.867 -4.619,6.242 -6.027,10.047c-6.148,16.617 2.57,35.181 19.456,41.429c16.887,6.249 35.588,-2.169 41.737,-18.786c3.311,-8.95 2.311,-18.465 -1.956,-26.315Zm-36.956,195.468c16.887,6.248 25.605,24.812 19.456,41.429c-6.148,16.616 -24.85,25.034 -41.737,18.786c-16.886,-6.248 -25.604,-24.812 -19.455,-41.429c6.148,-16.617 24.85,-25.035 41.736,-18.786Zm-106.83,6.701c4.113,1.522 6.233,6.052 4.732,10.111c-1.502,4.058 -6.06,6.118 -10.174,4.596c-4.113,-1.522 -6.233,-6.053 -4.731,-10.111c1.502,-4.059 6.06,-6.118 10.173,-4.596Zm-27.371,-117.64l-27.908,3.066l12.859,117.049l27.908,-3.066l-12.859,-117.049Zm-75.715,21.411c17.008,6.293 26.418,23.286 21.002,37.923c-5.416,14.637 -23.621,21.411 -40.628,15.118c-17.007,-6.293 -26.418,-23.286 -21.002,-37.923c5.416,-14.637 23.621,-21.411 40.628,-15.118Zm215.086,-3.877c6.324,2.34 9.499,9.531 7.088,16.049c-2.412,6.517 -9.504,9.909 -15.827,7.569c-6.323,-2.34 -9.499,-9.531 -7.088,-16.048c2.412,-6.518 9.504,-9.91 15.827,-7.57Zm168.028,-36.41c3.518,1.302 5.356,5.112 4.102,8.502c-1.255,3.391 -5.13,5.087 -8.648,3.785c-3.519,-1.302 -5.356,-5.111 -4.102,-8.502c1.255,-3.391 5.13,-5.087 8.648,-3.785Zm-187.402,-4.166c3.009,1.113 4.722,3.986 3.825,6.412c-0.898,2.426 -4.31,3.412 -7.318,2.298c-3.009,-1.113 -4.481,-3.906 -3.584,-6.332c0.898,-2.425 4.069,-3.491 7.077,-2.378Zm154.047,-53.947c15.641,5.787 23.659,23.134 17.895,38.712c-5.764,15.579 -23.143,23.528 -38.784,17.74c-15.641,-5.788 -23.66,-23.134 -17.895,-38.712c5.764,-15.579 23.143,-23.528 38.784,-17.74Zm-317.011,15.594c7.104,2.629 10.778,10.423 8.198,17.395c-2.58,6.972 -10.442,10.497 -17.547,7.869c-7.104,-2.629 -10.777,-10.423 -8.198,-17.395c2.58,-6.972 10.442,-10.498 17.547,-7.869Zm85.344,-36.692c6.887,2.549 10.475,10.031 8.008,16.698c-2.467,6.668 -10.061,10.012 -16.948,7.464c-6.887,-2.548 -10.475,-10.03 -8.008,-16.698c2.467,-6.668 10.062,-10.012 16.948,-7.464Zm317.821,-15.118c3.009,1.113 4.553,4.447 3.446,7.439c-1.108,2.993 -4.45,4.519 -7.459,3.406c-3.008,-1.114 -4.552,-4.447 -3.445,-7.44c1.108,-2.993 4.449,-4.519 7.458,-3.405Z" style="fill:#fbaa2a;stroke:#000;stroke-width:8.33px;"/><path d="M973.139,118.082l-0.367,-7.999c-6.615,-1.277 -11.736,-5.945 -12.359,-11.977c-0.796,-7.694 6.025,-14.713 15.222,-15.664c9.197,-0.951 17.309,4.524 18.105,12.218c0.671,6.496 -4.085,12.51 -11.117,14.798l0.313,7.45c13.402,-1.59 22.129,-2.56 22.129,-2.56c-0,0 20.462,11.534 22.659,29.027c11.072,9.433 17.768,21.702 17.768,35.107c0,12.076 -5.433,23.23 -14.607,32.221c-5.607,13.956 2.37,33.833 3.814,41.463c0.241,1.274 -0.052,2.643 -0.744,3.987c3.584,3.393 5.963,7.533 6.53,12.001c1.458,11.483 -9.599,20.806 -24.676,20.806c-15.076,-0 -28.5,-9.323 -29.957,-20.806c-1.335,-10.517 7.828,-19.222 20.962,-20.611c-5.667,-13.261 -23.201,-15.095 -31.051,-15.23c-1.278,0.048 -2.57,0.073 -3.87,0.073c-7.102,0 -13.969,-0.738 -20.47,-2.116c4.667,2.319 7.858,6.515 8.055,11.418c0.311,7.729 -6.938,14.305 -16.176,14.676c-9.239,0.372 -16.991,-5.602 -17.302,-13.331c-0.262,-6.525 4.863,-12.228 12.025,-14.07l-0.107,-2.66c-6.302,-2.408 -12.07,-5.465 -17.138,-9.05c-12.829,0.805 -25.208,1.487 -35.872,2.032l0.193,9.673c6.522,1.69 11.339,6.67 11.583,12.73c0.31,7.729 -6.938,14.305 -16.176,14.676c-9.239,0.372 -16.991,-5.602 -17.302,-13.331c-0.262,-6.525 4.863,-12.228 12.024,-14.07l-0.174,-9.188c-14.337,0.693 -23.74,1.061 -23.74,1.061c0,-0 -16.152,-7.777 -31.109,-6.581c-14.956,1.197 -309.292,33.448 -309.292,33.448l4.846,-64.892l304.446,-24.193c0,0 13.76,-10.768 23.93,-19.144c2.222,-1.83 11.157,-4.059 23.758,-6.426l-0.714,-8.599c-6.666,-0.977 -11.992,-5.41 -12.887,-11.408c-1.141,-7.65 5.357,-14.969 14.501,-16.333c9.145,-1.365 17.496,3.739 18.637,11.39c0.964,6.458 -3.517,12.68 -10.438,15.283l0.659,7.927c13.423,-2.285 29.466,-4.637 45.573,-6.834l-1.019,-7.343c-6.655,-1.046 -11.935,-5.534 -12.768,-11.541c-1.062,-7.662 5.511,-14.913 14.669,-16.183c9.158,-1.27 17.456,3.92 18.519,11.582c0.896,6.468 -3.648,12.644 -10.596,15.175l0.97,6.995c14.366,-1.906 28.36,-3.651 40.138,-5.077Z" style="fill:url(#_Linear1);stroke:#000;stroke-width:8.33px;"/><path d="M1015.25,273.362c-0,-0 8.27,-1.838 10.72,-5.207" style="fill:none;stroke:#fff;stroke-width:8.33px;"/><path d="M1020.62,156.968c-0,0 14.855,15.702 5.36,28.679" style="fill:none;stroke:#fff;stroke-width:8.33px;"/><path d="M1015.25,207.201c-0,0 -0.919,-1.531 -0,-3.981" style="fill:none;stroke:#fff;stroke-width:8.33px;"/><path d="M817.351,160.036l5.207,53.602" style="fill:none;stroke:#000;stroke-width:8.33px;"/><path d="M190.035,212.335l627.316,-43.817" style="fill:none;stroke:#000;stroke-width:2.08px;"/><path d="M190.035,225.22l627.316,-49.888" style="fill:none;stroke:#000;stroke-width:2.08px;"/><path d="M194.623,237.137l622.728,-54.893" style="fill:none;stroke:#000;stroke-width:2.08px;"/><path d="M819.955,195.664l-622.963,65.898l-2.369,-11.897l622.728,-60.787" style="fill:none;stroke:#000;stroke-width:2.08px;"/><path d="M199.011,274.381l620.944,-71.684" style="fill:none;stroke:#000;stroke-width:2.08px;"/></g><defs><linearGradient id="_Linear1" x1="0" y1="0" x2="1" y2="0" gradientUnits="userSpaceOnUse" gradientTransform="matrix(534.577,0,0,174.611,510.915,201.654)"><stop offset="0" style="stop-color:#774132;stop-opacity:1"/><stop offset="0.45" style="stop-color:#7c4532;stop-opacity:1"/><stop offset="1" style="stop-color:#fbaa2a;stop-opacity:1"/></linearGradient></defs></svg>